<svg xmlns="http://www.w3.org/2000/svg" xml:space="preserve" id="Слой_1" x="0" y="0" version="1.1" viewBox="0 0 64 64">
  <style>
    .st3{fill:#03b5aa}
  </style>
  <path d="M26.7 2.1c-5.6.1-10.1.2-14.8 3.2C1.6 11.7.6 25.4.2 29.6c-.4 4.9-1 13 4.2 20.1 4.2 5.7 10.1 7.8 14.8 9.5 3.7 1.3 10.5 3.8 19.1 2.1 2.3-.4 12.4-2.7 19.1-11.7 8.4-11.3 8.4-29.1-1.1-39.2C48 1.6 35.4 1.9 26.7 2.1z"/>
  <path fill="#c12323" d="M24.1 10c-5.4 1.5-8.8 4.6-9.5 5.3C13 16.9 9.4 20.8 8.2 27c-1.3 6.9 1.3 12.2 2.1 13.8 2.3 4.6 5.6 7.2 7.4 8.5 5.1 3.5 10.1 3.9 15.9 4.2 5.2.3 8.1.5 11.7-1.1 5.1-2.3 7.5-6.7 8.5-8.5 4.9-9.1 1.4-18.3 1.1-19.1-2.8-6.9-8.1-10.2-10.6-11.7-2.4-1.3-10.6-5.7-20.2-3.1z"/>
  <path fill="#dbfe87" d="M54.3 13c-3.6-4.1-8.3-6.3-9.9-7-2.3-1.1-4.4-1.6-5.9-2 10.9 9 13.2 23.6 6.9 33-3.2 4.7-8.1 7.6-13.4 8.7 3.3 4 7 7.4 8 12.3 2.9-.8 4.9-1.8 5.4-2.1 2-1 6.4-3.7 9.9-9 .6-.9 2.9-4.5 4-10 .4-1.8 3-14.8-5-23.9z"/>
  <path d="m17 10.4 4.9 16.4 6.8-3.9z" class="st3"/>
  <path d="m33.5 9.1-3.9 16.7-7-3.5z" class="st3"/>
  <path d="M35.8 36.3 28 21.1l-6 5.1z" class="st3"/>
  <path d="m14.7 37.8 7.2-15.5 6.1 4.8z" class="st3"/>
</svg>
